<?xml version="1.0" standalone="no"?>
<!DOCTYPE svg PUBLIC "-//W3C//DTD SVG 20010904//EN"
 "http://www.w3.org/TR/2001/REC-SVG-20010904/DTD/svg10.dtd">
<svg version="1.0" xmlns="http://www.w3.org/2000/svg"
 width="1024.000000pt" height="1024.000000pt" viewBox="0 0 1024.000000 1024.000000"
 preserveAspectRatio="xMidYMid meet">
<metadata>
Created by potrace 1.11, written by Peter Selinger 2001-2013
</metadata>
<g transform="translate(0.000000,1024.000000) scale(0.100000,-0.100000)"
fill="#000000" stroke="none">
<path d="M4825 9520 c-1177 -86 -2239 -610 -3017 -1490 -455 -515 -794 -1159
-962 -1825 -209 -831 -175 -1694 98 -2500 62 -185 112 -306 219 -532 146 -307
231 -538 279 -753 33 -150 32 -447 -1 -634 -66 -372 -224 -726 -450 -1004 -28
-34 -51 -65 -51 -69 0 -9 354 5 535 22 516 48 974 146 1480 316 l260 87 115
-50 c414 -183 846 -299 1318 -355 184 -21 716 -25 897 -5 314 34 672 109 940
197 367 120 765 313 1081 525 922 616 1588 1570 1844 2642 73 306 108 585 117
923 11 433 -40 861 -152 1266 -427 1546 -1646 2735 -3197 3119 -182 45 -403
84 -603 105 -170 19 -585 27 -750 15z m-1725 -3886 c211 -71 373 -241 441
-464 18 -57 23 -100 23 -180 0 -129 -13 -188 -71 -310 -38 -79 -59 -107 -132
-180 -139 -138 -286 -200 -482 -200 -369 0 -660 275 -686 651 -8 107 17 221
74 339 38 79 59 108 132 180 97 96 183 146 311 180 112 30 275 23 390 -16z
m2186 16 c130 -33 217 -82 315 -180 73 -73 93 -100 132 -180 57 -121 72 -181
72 -305 0 -124 -15 -184 -72 -305 -39 -81 -58 -107 -132 -180 -141 -140 -286
-200 -481 -200 -195 0 -340 60 -481 200 -74 73 -93 99 -132 180 -57 121 -72
181 -72 305 0 124 15 184 72 305 39 80 59 107 132 180 97 97 184 147 311 180
101 26 233 26 336 0z m2240 0 c130 -33 217 -82 315 -180 73 -72 94 -101 132
-180 101 -208 100 -419 -1 -618 -118 -232 -349 -372 -611 -372 -121 0 -203 19
-311 72 -68 34 -103 60 -171 128 -73 73 -94 101 -132 180 -57 120 -71 180 -71
305 0 120 19 199 73 310 64 130 198 260 327 315 141 62 307 76 450 40z"/>
</g>
</svg>
